<?xml version='1.0' encoding='utf-8'?>
<svg xmlns="http://www.w3.org/2000/svg" viewBox="-10 0 5286 1000" fill="none"><g transform="translate(0 0)"><path d="M608 257v543h-168l-59 -78v78h-88l-61 -78v78h-127l-84 -96v-554h212l52 69l22 -69h219z" fill="#ffffff" /><path d="M608 257v543h-168l-59 -78v78h-88l-61 -78v78h-127l-84 -96v-554h212l52 69l22 -69h219zM382 699h125v-535h-186l-50 157l-51 -157h-185v535h126v-301h3l62 301h90l62 -301h4v301z" fill="#1a1a1a" /></g><g transform="translate(665 0)"><path d="M472 399v30h-142l-53 -69v160h118l77 101v26c0 47 -21 87 -63 118c-38 29 -81 43 -129 43c-83 0 -147 -35 -193 -104c-40 -59 -60 -130 -60 -213v-103c0 -73 11 -129 34 -167c31 -53 85 -80 164 -80c153 0 247 101 247 258z" fill="#ffffff" /><path d="M472 399v30h-142l-53 -69v160h118l77 101v26c0 47 -21 87 -63 118c-38 29 -81 43 -129 43c-83 0 -147 -35 -193 -104c-40 -59 -60 -130 -60 -213v-103c0 -73 11 -129 34 -167c31 -53 85 -80 164 -80c153 0 247 101 247 258zM383 566v-34h-110c0 40 -15 60 -45 60 c-31 0 -47 -20 -47 -59v-200c0 -35 15 -53 46 -53c19 0 32 5 39 16c5 7 7 19 7 37h101c0 -53 -11 -95 -33 -126c-25 -35 -63 -53 -114 -53c-83 0 -137 30 -163 91c-15 35 -22 96 -22 185c0 93 9 159 26 196c29 62 88 93 176 93c93 0 139 -51 139 -153z" fill="#1a1a1a" /></g><g transform="translate(1184 0)"><path d="M608 257v543h-168l-59 -78v78h-88l-61 -78v78h-127l-84 -96v-554h212l52 69l22 -69h219z" fill="#ffffff" /><path d="M608 257v543h-168l-59 -78v78h-88l-61 -78v78h-127l-84 -96v-554h212l52 69l22 -69h219zM382 699h125v-535h-186l-50 157l-51 -157h-185v535h126v-301h3l62 301h90l62 -301h4v301z" fill="#1a1a1a" /></g><g transform="translate(1849 0)"><path d="M403 304l102 496h-194l-63 -83l-11 83h-143l-71 -92l76 -558h186z" fill="#ffffff" /><path d="M403 304l102 496h-194l-63 -83l-11 83h-143l-71 -92l76 -558h186zM270 710h122l-113 -545h-169l-73 545h106l9 -70h94zM189 374l35 155h-56z" fill="#1a1a1a" /></g><g transform="translate(2382 0)"><path d="M499 262v538h-166l-66 -86v86h-172l-70 -91v-559h167l71 93v-93h150z" fill="#ffffff" /><path d="M499 262v538h-166l-66 -86v86h-172l-70 -91v-559h167l71 93v-93h150zM269 698h132v-535h-124v228h-4l-95 -228h-140v535h127v-240h3z" fill="#1a1a1a" /></g><g transform="translate(2938 0)"><path d="M403 304l102 496h-194l-63 -83l-11 83h-143l-71 -92l76 -558h186z" fill="#ffffff" /><path d="M403 304l102 496h-194l-63 -83l-11 83h-143l-71 -92l76 -558h186zM270 710h122l-113 -545h-169l-73 545h106l9 -70h94zM189 374l35 155h-56z" fill="#1a1a1a" /></g><g transform="translate(3471 0)"><path d="M608 257v543h-168l-59 -78v78h-88l-61 -78v78h-127l-84 -96v-554h212l52 69l22 -69h219z" fill="#ffffff" /><path d="M608 257v543h-168l-59 -78v78h-88l-61 -78v78h-127l-84 -96v-554h212l52 69l22 -69h219zM382 699h125v-535h-186l-50 157l-51 -157h-185v535h126v-301h3l62 301h90l62 -301h4v301z" fill="#1a1a1a" /></g><g transform="translate(4136 0)"><path d="M526 554c0 67 -14 124 -43 172c-37 61 -91 92 -163 92h-21c-99 0 -172 -35 -221 -105c-42 -60 -63 -141 -63 -244v-98c0 -76 19 -134 57 -174c37 -38 88 -57 153 -57c97 0 174 51 232 152c46 81 69 169 69 262z" fill="#ffffff" /><path d="M526 554c0 67 -14 124 -43 172c-37 61 -91 92 -163 92h-21c-99 0 -172 -35 -221 -105c-42 -60 -63 -141 -63 -244v-98c0 -76 19 -134 57 -174c37 -38 88 -57 153 -57c97 0 174 51 232 152c46 81 69 169 69 262zM424 501v-107c0 -67 -16 -123 -47 -167 c-35 -49 -83 -74 -146 -74c-62 0 -110 18 -145 53c-37 39 -56 95 -56 170v89c0 176 67 264 201 264c75 0 127 -20 156 -61c25 -34 37 -90 37 -167zM274 338v203c0 37 -16 56 -48 56s-48 -19 -48 -56v-203c0 -39 16 -59 48 -59s48 20 48 59z" fill="#1a1a1a" /></g><g transform="translate(4710 0)"><path d="M499 262v538h-166l-66 -86v86h-172l-70 -91v-559h167l71 93v-93h150z" fill="#ffffff" /><path d="M499 262v538h-166l-66 -86v86h-172l-70 -91v-559h167l71 93v-93h150zM269 698h132v-535h-124v228h-4l-95 -228h-140v535h127v-240h3z" fill="#1a1a1a" /></g></svg>